<svg width="24" height="24" viewBox="0 0 24 24" fill="none" xmlns="http://www.w3.org/2000/svg">
<path d="M18.558 23.9999C18.3244 23.9993 18.0915 23.9731 17.8634 23.9218C13.5197 23.0029 9.51811 20.8485 6.31902 17.7064C3.18821 14.5574 1.01682 10.5481 0.0675746 6.16348C-0.0443532 5.61703 -0.0168817 5.05031 0.147346 4.51786C0.311574 3.98541 0.607031 3.50514 1.00529 3.12325L3.78371 0.38847C3.92563 0.251225 4.09424 0.146125 4.27856 0.0800304C4.46288 0.0139358 4.65876 -0.0116681 4.85341 0.00488969C5.05523 0.026422 5.25 0.0929094 5.424 0.199676C5.59801 0.306443 5.74703 0.450897 5.86058 0.62288L9.33361 5.87224C9.46385 6.07593 9.52672 6.31698 9.51297 6.55994C9.49921 6.8029 9.40956 7.03492 9.25721 7.22188L7.51375 9.35288C8.20811 10.9245 9.19146 12.3449 10.4103 13.5367C11.6212 14.7719 13.0524 15.7581 14.6265 16.442L16.7867 14.6875C16.9682 14.5408 17.1889 14.4541 17.4197 14.4389C17.6505 14.4237 17.8803 14.4807 18.0787 14.6022L23.323 18.0687C23.5029 18.1786 23.6563 18.3287 23.7714 18.5077C23.8866 18.6868 23.9607 18.8902 23.9881 19.1028C24.0155 19.3153 23.9955 19.5314 23.9296 19.7349C23.8638 19.9384 23.7537 20.124 23.6078 20.2778L20.8988 23.0197C20.5911 23.3328 20.2258 23.5806 19.8241 23.7489C19.4224 23.9171 18.9921 24.0024 18.558 23.9999V23.9999ZM4.74227 1.41135L1.96385 4.14613C1.7398 4.35962 1.57396 4.62907 1.48261 4.92798C1.39127 5.2269 1.37758 5.54497 1.44289 5.85093C2.32554 9.96528 4.35448 13.7302 7.28453 16.6906C10.2951 19.6467 14.0608 21.6732 18.1482 22.5367C18.4575 22.6028 18.7781 22.5894 19.0812 22.4977C19.3843 22.4059 19.6603 22.2387 19.8847 22.011L22.5936 19.2691L17.53 15.9235L15.21 17.8129C15.1212 17.8848 15.0165 17.9334 14.9051 17.9545C14.7937 17.9755 14.679 17.9684 14.5709 17.9337C12.6446 17.2079 10.8989 16.0557 9.45864 14.5596C7.96896 13.137 6.81263 11.3887 6.07591 9.44522C6.04475 9.32756 6.04371 9.20368 6.07291 9.0855C6.1021 8.96732 6.16055 8.8588 6.24262 8.7704L8.11805 6.47603L4.74227 1.41135Z" fill="#333333"/>
</svg>
