<svg width="20" height="22" viewBox="0 0 20 22" fill="none" xmlns="http://www.w3.org/2000/svg">
<path d="M9.99968 11C12.8451 11 15.1517 8.76142 15.1517 6C15.1517 3.23858 12.8451 1 9.99968 1C7.15429 1 4.84766 3.23858 4.84766 6C4.84766 8.76142 7.15429 11 9.99968 11Z" stroke="#333333" stroke-width="2"/>
<path d="M15.152 13H15.5147C16.268 13.0002 16.9953 13.2674 17.56 13.7513C18.1246 14.2352 18.4878 14.9026 18.5812 15.628L18.9841 18.752C19.0203 19.0334 18.9945 19.3191 18.9083 19.5901C18.822 19.8611 18.6774 20.1112 18.484 20.3238C18.2905 20.5364 18.0527 20.7066 17.7863 20.8232C17.5199 20.9398 17.231 21.0001 16.9387 21H3.06126C2.76902 21.0001 2.4801 20.9398 2.21369 20.8232C1.94728 20.7066 1.70947 20.5364 1.51604 20.3238C1.3226 20.1112 1.17797 19.8611 1.09175 19.5901C1.00552 19.3191 0.979667 19.0334 1.01591 18.752L1.41776 15.628C1.51122 14.9022 1.87466 14.2346 2.43975 13.7506C3.00484 13.2667 3.73265 12.9997 4.48631 13H4.84798" stroke="#333333" stroke-width="2" stroke-linecap="round" stroke-linejoin="round"/>
</svg>
